<svg xmlns="http://www.w3.org/2000/svg" viewBox="0 0 1440 600" shape-rendering="crispEdges">
<defs><pattern id="stars" width="130" height="95" patternUnits="userSpaceOnUse"><rect x="20" y="30" width="3" height="3" fill="#b5d8ff" opacity=".8"/><rect x="100" y="78" width="2" height="2" fill="#b5d8ff" opacity=".55"/></pattern><pattern id="stone" width="32" height="32" patternUnits="userSpaceOnUse"><rect width="32" height="32" fill="#34485a"/><path d="M0 0H32M0 16H32M16 0V16M8 16V32" stroke="#192c3d" stroke-width="3"/><path d="M1 2H13M17 18H29" stroke="#678399" stroke-width="2"/></pattern></defs>
<rect width="1440" height="600" fill="url(#stars)"/><circle cx="1120" cy="124" r="65" fill="#d3e6f4" opacity=".8"/><path d="M1090 76h35v10h-35zm50 35h30v15h-30zm-55 44h28v12h-28z" fill="#a9c4d8"/>
<path d="M0 450L130 320l115 92 150-170 150 195 140-115 170 150 145-200 130 135 120-85v278H0" fill="#172d49"/><path d="M0 500L120 430l140 35 160-120 150 140 160-105 175 100 140-120 180 140 115-60v160H0" fill="#203b57"/>
<path d="M0 545h1440v55H0" fill="#152b27"/><path d="M0 537h1440v13H0" fill="#426b49"/><path d="M0 534h1440v5H0" fill="#82a66b"/>
<g transform="translate(90 345)"><rect x="35" y="70" width="120" height="135" fill="url(#stone)"/><rect x="16" y="52" width="160" height="20" fill="url(#stone)"/><rect x="25" y="32" width="32" height="24" fill="url(#stone)"/><rect x="134" y="32" width="32" height="24" fill="url(#stone)"/><rect x="80" y="115" width="44" height="90" fill="#10212f"/><rect x="86" y="119" width="32" height="85" fill="#101f2d"/><rect x="55" y="90" width="18" height="26" fill="#edb961"/><rect x="139" y="90" width="12" height="26" fill="#edb961"/></g>
<g transform="translate(1180 360)"><rect x="40" y="85" width="30" height="120" fill="#3b332e"/><rect x="0" y="75" width="110" height="20" fill="#284d38"/><rect x="20" y="42" width="70" height="35" fill="#345d40"/><rect x="35" y="10" width="40" height="35" fill="#44784e"/><rect x="50" y="0" width="20" height="12" fill="#528b58"/><rect x="0" y="85" width="20" height="20" fill="#345d40"/><rect x="90" y="85" width="20" height="20" fill="#345d40"/></g>
<g transform="translate(420 465)"><rect x="0" y="40" width="180" height="50" fill="url(#stone)"/><rect x="25" y="20" width="140" height="20" fill="url(#stone)"/><rect x="70" y="0" width="40" height="20" fill="#d18a43"/><rect x="78" y="-14" width="25" height="20" fill="#f6b34f"/><rect x="85" y="-30" width="12" height="22" fill="#ffdf79"/></g>
<g fill="#cda45e"><rect x="305" y="500" width="8" height="40"/><rect x="298" y="489" width="22" height="17"/><rect x="303" y="494" width="12" height="8" fill="#ffdb80"/><rect x="1050" y="492" width="8" height="48"/><rect x="1043" y="481" width="22" height="17"/><rect x="1048" y="486" width="12" height="8" fill="#ffdb80"/></g>
</svg>
